<svg version="1.1" id="Layer_1" xmlns="http://www.w3.org/2000/svg" xmlns:xlink="http://www.w3.org/1999/xlink" x="0px" y="0px"
	 width="100%" viewBox="0 0 500 500" enable-background="new 0 0 500 500" xml:space="preserve">
<path fill="#FFFFFF" opacity="1.000000" stroke="none" 
	d="
M337.000000,501.000000 
	C226.000031,501.000000 115.500031,500.979645 5.000179,501.095337 
	C1.576374,501.098938 0.903033,500.423889 0.905298,497.000031 
	C1.013776,333.000122 1.013758,169.000153 0.905339,5.000261 
	C0.903076,1.576992 1.575751,0.903019 4.999862,0.905284 
	C168.999756,1.013775 332.999725,1.013760 496.999634,0.905354 
	C500.422638,0.903092 501.097015,1.575404 501.094757,4.999743 
	C500.986237,168.999634 500.986237,332.999603 501.094604,496.999512 
	C501.096893,500.422272 500.426208,501.106354 497.000183,501.097382 
	C443.833740,500.958069 390.666809,501.000000 337.000000,501.000000 
z"/>
<path fill="#FEEC01" opacity="1.000000" stroke="none" 
	d="
M320.164185,88.453728 
	C325.003662,88.088890 329.676788,88.256203 334.315399,87.930908 
	C337.889221,87.680290 339.105316,88.542923 339.098755,92.468338 
	C338.959656,175.693481 338.979950,258.918884 338.901672,342.613831 
	C336.392761,342.623383 336.186096,340.303772 335.273163,338.652771 
	C327.163483,323.987122 312.150665,316.736389 295.480408,318.956421 
	C270.422791,322.293396 245.443558,326.215302 220.313812,329.017303 
	C206.233963,330.587219 191.891266,320.950989 190.312546,308.610168 
	C189.749695,304.210266 190.345688,299.966095 193.839233,296.204834 
	C195.132568,294.985260 195.987350,293.871796 197.726059,293.287964 
	C200.703720,293.119873 202.355423,294.951874 204.214020,296.262024 
	C216.052750,304.607269 229.159058,309.165222 244.053650,309.643433 
	C247.127396,309.629242 249.804062,309.674377 252.874237,309.595215 
	C261.834320,308.495880 270.415619,307.717590 278.554993,304.323578 
	C303.116333,294.081818 319.192596,276.098053 324.014648,250.122131 
	C329.053040,222.981125 319.579620,200.058487 298.379395,182.202576 
	C283.761261,169.890427 266.792633,164.969131 247.479980,166.324890 
	C210.130493,165.888092 178.893051,192.598053 174.216660,229.208511 
	C171.413712,251.152267 178.534348,270.187897 193.027893,286.637848 
	C194.234192,288.006958 195.664597,289.198334 196.487564,291.327515 
	C196.677231,293.225922 195.734573,294.196228 194.502411,295.448242 
	C189.358307,300.760010 183.317627,304.450317 178.631790,309.707886 
	C173.385117,315.594727 168.889359,321.908081 165.769958,329.185638 
	C160.660873,341.105164 161.686584,352.482605 168.362381,363.537170 
	C177.896042,379.324066 197.361176,387.793213 215.556534,384.695801 
	C243.444427,379.948425 271.287048,374.949219 299.163788,370.144196 
	C313.475403,367.677307 323.720978,376.669098 322.950592,391.027161 
	C322.499817,391.731689 322.786316,392.551819 321.962616,392.581238 
	C321.879517,392.584167 321.855530,392.671509 321.883026,392.624298 
	C322.218384,392.048126 322.779938,393.237488 322.397186,392.520752 
	C328.942902,385.316528 333.722198,377.296204 338.498566,369.111877 
	C338.893494,388.498352 338.818512,407.818817 339.097565,427.134186 
	C339.162292,431.612610 336.546417,430.841248 333.982880,430.841644 
	C294.506287,430.847534 255.029678,430.845764 215.553085,430.845764 
	C198.563156,430.845764 181.569763,430.655884 164.585526,430.966400 
	C159.758011,431.054688 158.533051,429.769714 158.539917,424.936432 
	C158.686478,321.497986 158.651138,218.059235 158.651138,114.620567 
	C158.651138,107.291580 158.862534,99.953949 158.563416,92.637192 
	C158.410614,88.899086 159.481842,87.895279 163.253387,87.911156 
	C200.230759,88.066864 237.209000,88.017853 274.659607,88.094795 
	C275.379852,89.439232 274.780029,90.487144 274.027740,91.357803 
	C267.777222,98.592087 265.601257,107.070625 266.428223,116.790962 
	C269.486633,110.890350 274.620758,109.561684 280.613464,109.650398 
	C286.877930,109.743126 291.891144,112.230522 295.920441,116.829735 
	C302.520721,124.363571 303.537048,133.373260 301.765320,142.675781 
	C299.948578,152.214615 295.520264,160.535568 287.586700,167.050171 
	C287.106049,167.697800 286.102173,167.155960 286.264557,168.038757 
	C286.385132,168.694138 287.051056,168.179077 286.399902,168.036133 
	C285.748749,167.893188 286.678528,166.982788 286.788635,167.477249 
	C301.519440,156.375137 314.540405,144.204422 322.427826,127.422028 
	C327.006287,117.680305 328.519958,107.845070 324.699768,97.484070 
	C323.534454,94.323578 320.713745,92.126427 320.164185,88.453728 
z"/>
<path fill="#251723" opacity="1.000000" stroke="none" 
	d="
M322.491211,393.129211 
	C321.193573,392.471649 321.789459,391.264038 321.825745,390.149597 
	C322.238953,377.453796 312.838867,369.063660 300.223999,371.185364 
	C286.455750,373.501038 272.748596,376.177490 258.994812,378.582306 
	C243.108551,381.359985 227.293533,385.044434 211.281021,386.488708 
	C184.310394,388.921356 163.429230,369.008942 161.409195,347.024750 
	C160.125198,333.051025 166.671112,321.587006 175.461380,311.332581 
	C180.682510,305.241791 186.691483,299.979614 193.646332,295.338013 
	C194.133835,295.266022 194.342621,295.359222 194.671494,295.773743 
	C186.788467,309.455688 194.720978,323.940430 211.561050,327.034790 
	C220.291443,328.639008 228.791153,326.864929 237.319412,325.744934 
	C257.409027,323.106781 277.464935,320.212189 297.536774,317.437897 
	C315.050201,315.017242 331.319855,325.073914 338.573730,342.850403 
	C341.088928,351.489624 341.195404,359.903931 338.884827,368.753479 
	C335.084106,378.186249 330.207092,386.426178 322.491211,393.129211 
z"/>
<path fill="#271923" opacity="1.000000" stroke="none" 
	d="
M320.057007,87.918762 
	C330.028290,100.246765 330.234772,113.403313 324.044006,126.895836 
	C316.012665,144.399811 303.204285,157.811844 286.573090,168.122482 
	C294.997223,158.823654 301.280060,148.394211 301.312622,135.048157 
	C301.331482,127.317276 298.725006,120.667839 292.942505,115.478096 
	C287.538147,110.627769 281.117401,109.637932 274.256012,111.407433 
	C269.773346,112.563477 267.493469,115.928795 266.215271,121.577675 
	C263.458344,108.179237 265.996552,97.621086 274.997559,88.468658 
	C286.033295,79.584053 297.813538,76.005104 311.274536,81.723495 
	C314.549835,83.114883 317.248077,85.269440 320.057007,87.918762 
z"/>
<path fill="#251723" opacity="1.000000" stroke="none" 
	d="
M196.192307,292.146942 
	C184.502899,280.118286 176.588150,266.515961 173.475159,250.104370 
	C168.134094,221.946564 182.096695,190.919235 206.932144,176.195007 
	C219.056015,169.007095 231.968399,164.899780 246.558105,165.029739 
	C247.052902,165.442337 247.106277,165.736328 246.866196,166.368469 
	C245.775818,167.327942 244.844269,167.685242 243.925735,168.073715 
	C235.907074,171.464752 231.561432,177.542358 231.527740,186.217010 
	C231.394821,220.442123 231.442154,254.667908 231.492249,288.893433 
	C231.504944,297.564056 235.510529,303.758942 243.486725,307.995575 
	C244.230881,308.771545 244.395538,309.321289 243.989258,310.256409 
	C226.806015,310.323486 211.965271,304.620453 198.611404,293.942291 
	C197.423691,293.676880 196.604904,293.426147 196.192307,292.146942 
z"/>
<path fill="#251723" opacity="1.000000" stroke="none" 
	d="
M247.270660,166.105301 
	C246.999130,165.753738 246.999420,165.451035 246.999481,165.299683 
	C289.133759,160.873596 325.435272,194.573273 326.530151,235.942139 
	C327.587219,275.879517 294.484100,309.119507 254.802689,310.386230 
	C253.810883,310.109650 253.594147,309.629303 254.066559,308.626709 
	C264.423553,303.926147 267.699799,295.938629 267.615051,285.403442 
	C267.363647,254.140228 267.521088,222.873688 267.531128,191.608444 
	C267.532196,188.275513 267.425537,184.965012 266.707977,181.688553 
	C265.018158,173.972519 259.599518,168.775894 251.848679,167.547577 
	C250.375549,167.314117 248.853241,167.314575 247.270660,166.105301 
z"/>
<path fill="#A3930F" opacity="1.000000" stroke="none" 
	d="
M253.798187,308.790649 
	C254.120621,309.452667 254.190796,309.729065 254.391800,310.194641 
	C251.204742,311.611053 247.882553,310.926483 244.131012,310.739319 
	C243.822113,310.229675 243.976883,309.892212 244.055267,309.286407 
	C247.009125,306.765625 250.207642,307.217163 253.798187,308.790649 
z"/>
<path fill="#FDEB00" opacity="1.000000" stroke="none" 
	d="
M195.931915,292.152283 
	C196.682220,292.361359 197.297134,292.872864 198.097534,293.628052 
	C197.330856,294.518707 196.378662,295.165710 195.109009,295.953888 
	C194.447403,296.085175 194.191910,295.929626 193.975067,295.400604 
	C194.548859,294.266785 195.172668,293.360779 195.931915,292.152283 
z"/>
<path fill="#271923" opacity="1.000000" stroke="none" 
	d="
M286.362030,168.273163 
	C286.231598,168.542465 285.962524,168.875702 285.717194,168.859055 
	C285.250977,168.827393 285.186920,168.489441 285.744141,168.056870 
	C285.982574,167.985229 286.234100,168.179123 286.362030,168.273163 
z"/>
<path fill="#251723" opacity="1.000000" stroke="none" 
	d="
M322.276550,393.370148 
	C322.078827,393.292694 321.898804,393.199982 321.718781,393.107239 
	C321.823090,393.131836 321.927399,393.156433 322.174866,393.297699 
	C322.318024,393.414368 322.294281,393.354858 322.276550,393.370148 
z"/>
<path fill="#FCEA01" opacity="1.000000" stroke="none" 
	d="
M254.503998,309.100830 
	C251.060181,309.077301 247.977448,309.001770 244.436798,308.972168 
	C235.012329,305.794312 230.239532,299.682007 230.210266,290.367615 
	C230.099274,255.039001 230.088501,219.709625 230.208725,184.381104 
	C230.239777,175.255280 236.479889,168.466843 246.638092,165.883392 
	C261.997437,166.457230 268.747528,173.397354 268.758911,188.265198 
	C268.784454,221.673248 268.784637,255.081360 268.757111,288.489410 
	C268.748199,299.315063 264.517975,305.490814 254.503998,309.100830 
z"/>
</svg>